<svg xml:space="preserve" viewBox="0 0 100 100" y="0px" x="0px" xmlns:xlink="http://www.w3.org/1999/xlink" xmlns="http://www.w3.org/2000/svg" id="圖層_1" version="1.1" preserveAspectRatio="xMidYMid" width="200" height="200" style="margin-top:0px;margin-right:0px;margin-bottom:0px;margin-left:0px;display:block;shape-rendering:auto;background-position-x:0%;background-position-y:0%;background-size:auto;background-origin:padding-box;background-clip:border-box;background:scroll rgb(255, 255, 255) none  repeat;width:200px;height:200px;;animation:none"><g class="ldl-scale" style="transform-origin:50px 50px;transform:matrix(0.8, 0, 0, 0.8, 0, 0);;animation:none"><g class="ldl-ani"><g class="ldl-layer"><g class="ldl-ani" style="transform-origin:50px 50px;transform:matrix(1.03, 0, 0, 1.03, 0, 0);animation-duration:1s;animation-timing-function:linear;animation-delay:-0.538462s;animation-iteration-count:infinite;animation-direction:normal;animation-fill-mode:forwards;animation-play-state:paused;animation-name:animate;animation-timeline:auto;animation-range-start:normal;animation-range-end:normal;transform-box:view-box;;animation:none"><ellipse ry="27.12" rx="31.94" cy="32.12" cx="50" stroke-miterlimit="10" stroke-linejoin="round" stroke-linecap="round" stroke-width="3.5" stroke="#333435" fill="#92BFA8" style="stroke-width:3.5px;fill:rgb(146, 191, 168);stroke:rgb(51, 52, 53);;animation:none"></ellipse></g></g>
<g class="ldl-layer"><g class="ldl-ani" style="transform-origin:50px 50px;transform:matrix(1.03, 0, 0, 1.03, 0, 0);animation-duration:1s;animation-timing-function:linear;animation-delay:-0.576923s;animation-iteration-count:infinite;animation-direction:normal;animation-fill-mode:forwards;animation-play-state:paused;animation-name:animate;animation-timeline:auto;animation-range-start:normal;animation-range-end:normal;transform-box:view-box;;animation:none"><path d="M57.53,83.02l-1.47-29.13l10.05-17.82L62,31.56l-9.69,14.22h-1.47L38.45,27.54l-4.56,4.86l12.18,22.92l-1.4,27.7 c-0.15,3.05-1.09,5.94-2.65,8.19L39.4,95h23.41l-2.63-3.79C58.62,88.96,57.68,86.07,57.53,83.02z" stroke-miterlimit="10" stroke-linejoin="round" stroke-linecap="round" stroke-width="3.5" stroke="#333435" fill="#C69C6D" style="stroke-width:3.5px;fill:rgb(198, 156, 109);stroke:rgb(51, 52, 53);;animation:none"></path></g></g>
<g class="ldl-layer"><g class="ldl-ani"><g><g class="ldl-layer"><g class="ldl-ani" style="transform-origin:50px 50px;transform:matrix(1.01936, 0, 0, 1.01936, 0, 0);animation-duration:1s;animation-timing-function:linear;animation-delay:-0.615385s;animation-iteration-count:infinite;animation-direction:normal;animation-fill-mode:forwards;animation-play-state:paused;animation-name:animate;animation-timeline:auto;animation-range-start:normal;animation-range-end:normal;transform-box:view-box;;animation:none"><path d="M51.79,13.23c-0.57-0.03-1.15-0.04-1.74-0.04c-0.02,0-0.03,0-0.05,0c-14.78,0-24.77,7.94-24.77,21.03 c0,1.44,0.13,2.82,0.36,4.13c2.11,0.65,4.36,1.01,6.7,1.01c7.26,0,13.65-3.37,17.41-8.49c3.43,6.29,10.54,10.61,18.75,10.61 c1.86,0,3.66-0.22,5.38-0.64c0.62-2.02,0.95-4.23,0.95-6.61C74.77,21.66,65.58,13.85,51.79,13.23z" fill="#92BFA8" style="stroke-width:1px;fill:rgb(146, 191, 168);;animation:none"></path></g></g>
<g class="ldl-layer"><g class="ldl-ani" style="transform-origin:50px 50px;transform:matrix(1.00654, 0, 0, 1.00654, 0, 0);animation-duration:1s;animation-timing-function:linear;animation-delay:-0.653846s;animation-iteration-count:infinite;animation-direction:normal;animation-fill-mode:forwards;animation-play-state:paused;animation-name:animate;animation-timeline:auto;animation-range-start:normal;animation-range-end:normal;transform-box:view-box;;animation:none"><path d="M34.92,39.21c6.16-0.7,11.48-3.85,14.78-8.34c2.91,5.34,8.48,9.26,15.12,10.32" stroke-miterlimit="10" stroke-linejoin="round" stroke-linecap="round" stroke-width="3.5" stroke="#333435" fill="none" style="stroke-width:3.5px;stroke:rgb(51, 52, 53);fill:none;;animation:none"></path></g></g></g></g></g>
<g class="ldl-layer"><g class="ldl-ani" style="transform-origin:50px 50px;transform:matrix(0.993846, 0, 0, 0.993846, 0, 0);animation-duration:1s;animation-timing-function:linear;animation-delay:-0.692308s;animation-iteration-count:infinite;animation-direction:normal;animation-fill-mode:forwards;animation-play-state:paused;animation-name:animate;animation-timeline:auto;animation-range-start:normal;animation-range-end:normal;transform-box:view-box;;animation:none"><path d="M29.15,19.72c0.76-0.31,1.63,0.26,1.65,1.08c0.01,0.49-0.04,0.95-0.12,1.38c-0.17,0.82-0.48,1.55-0.9,2.2 c-0.42,0.65-0.97,1.22-1.65,1.7c-0.37,0.25-0.77,0.48-1.23,0.67c-0.76,0.31-1.62-0.26-1.64-1.08c-0.01-0.5,0.04-0.96,0.12-1.39 c0.17-0.82,0.48-1.55,0.9-2.19c0.43-0.65,0.97-1.22,1.66-1.7C28.29,20.14,28.69,19.91,29.15,19.72z" fill="#689991" style="stroke-width:1px;fill:rgb(104, 153, 145);;animation:none"></path></g></g>
<g class="ldl-layer"><g class="ldl-ani" style="transform-origin:50px 50px;transform:matrix(0.977351, 0, 0, 0.977351, 0, 0);animation-duration:1s;animation-timing-function:linear;animation-delay:-0.730769s;animation-iteration-count:infinite;animation-direction:normal;animation-fill-mode:forwards;animation-play-state:paused;animation-name:animate;animation-timeline:auto;animation-range-start:normal;animation-range-end:normal;transform-box:view-box;;animation:none"><path d="M67,16.48c-0.12-0.81,0.64-1.52,1.45-1.34c0.48,0.11,0.91,0.27,1.31,0.45c0.75,0.36,1.38,0.83,1.91,1.4 c0.53,0.57,0.95,1.24,1.25,2.01c0.15,0.42,0.28,0.86,0.35,1.35c0.11,0.81-0.64,1.51-1.44,1.34c-0.49-0.11-0.92-0.27-1.32-0.45 c-0.75-0.36-1.38-0.83-1.91-1.41c-0.53-0.57-0.95-1.24-1.25-2.02C67.2,17.4,67.07,16.97,67,16.48z" fill="#689991" style="stroke-width:1px;fill:rgb(104, 153, 145);;animation:none"></path></g></g>
<g class="ldl-layer"><g class="ldl-ani" style="transform-origin:50px 50px;transform:matrix(0.965239, 0, 0, 0.965239, 0, 0);animation-duration:1s;animation-timing-function:linear;animation-delay:-0.769231s;animation-iteration-count:infinite;animation-direction:normal;animation-fill-mode:forwards;animation-play-state:paused;animation-name:animate;animation-timeline:auto;animation-range-start:normal;animation-range-end:normal;transform-box:view-box;;animation:none"><path d="M33.44,42.9c0.67-0.47,1.64-0.12,1.85,0.68c0.12,0.48,0.18,0.93,0.2,1.37c0.02,0.83-0.11,1.61-0.38,2.34 c-0.26,0.73-0.67,1.41-1.22,2.03c-0.3,0.33-0.64,0.64-1.05,0.93c-0.67,0.47-1.64,0.12-1.85-0.68c-0.13-0.48-0.18-0.94-0.2-1.38 c-0.02-0.83,0.11-1.61,0.38-2.34c0.27-0.73,0.67-1.41,1.23-2.03C32.71,43.49,33.04,43.18,33.44,42.9z" fill="#689991" style="stroke-width:1px;fill:rgb(104, 153, 145);;animation:none"></path></g></g>
<g class="ldl-layer"><g class="ldl-ani" style="transform-origin:50px 50px;transform:matrix(0.94596, 0, 0, 0.94596, 0, 0);animation-duration:1s;animation-timing-function:linear;animation-delay:-0.807692s;animation-iteration-count:infinite;animation-direction:normal;animation-fill-mode:forwards;animation-play-state:paused;animation-name:animate;animation-timeline:auto;animation-range-start:normal;animation-range-end:normal;transform-box:view-box;;animation:none"><path d="M41.65,26.62c0.79,0.24,1.1,1.23,0.6,1.88c-0.3,0.39-0.63,0.71-0.97,1c-0.65,0.53-1.34,0.9-2.08,1.14 c-0.74,0.24-1.52,0.34-2.36,0.28c-0.44-0.04-0.9-0.11-1.37-0.26c-0.78-0.24-1.1-1.22-0.6-1.87c0.3-0.4,0.63-0.72,0.97-1 c0.65-0.53,1.34-0.9,2.08-1.13c0.74-0.23,1.52-0.33,2.36-0.28C40.73,26.4,41.18,26.47,41.65,26.62z" fill="#689991" style="stroke-width:1px;fill:rgb(104, 153, 145);;animation:none"></path></g></g>
<g class="ldl-layer"><g class="ldl-ani" style="transform-origin:50px 50px;transform:matrix(0.930419, 0, 0, 0.930419, 0, 0);animation-duration:1s;animation-timing-function:linear;animation-delay:-0.846154s;animation-iteration-count:infinite;animation-direction:normal;animation-fill-mode:forwards;animation-play-state:paused;animation-name:animate;animation-timeline:auto;animation-range-start:normal;animation-range-end:normal;transform-box:view-box;;animation:none"><path d="M53.19,12.36c0.12-0.81,1.05-1.27,1.76-0.87c0.43,0.24,0.8,0.52,1.13,0.8c0.62,0.56,1.09,1.19,1.44,1.89 c0.35,0.69,0.56,1.45,0.63,2.29c0.03,0.44,0.03,0.9-0.05,1.4c-0.12,0.81-1.05,1.27-1.76,0.87c-0.44-0.24-0.8-0.52-1.14-0.81 c-0.62-0.56-1.09-1.19-1.43-1.89c-0.34-0.7-0.56-1.46-0.63-2.29C53.11,13.31,53.11,12.85,53.19,12.36z" fill="#689991" style="stroke-width:1px;fill:rgb(104, 153, 145);;animation:none"></path></g></g>
<g class="ldl-layer"><g class="ldl-ani" style="transform-origin:50px 50px;transform:matrix(0.919134, 0, 0, 0.919134, 0, 0);animation-duration:1s;animation-timing-function:linear;animation-delay:-0.884615s;animation-iteration-count:infinite;animation-direction:normal;animation-fill-mode:forwards;animation-play-state:paused;animation-name:animate;animation-timeline:auto;animation-range-start:normal;animation-range-end:normal;transform-box:view-box;;animation:none"><path d="M63.46,24.02c0.76-0.31,1.63,0.26,1.65,1.08c0.01,0.49-0.04,0.95-0.12,1.38c-0.17,0.82-0.48,1.55-0.9,2.2 c-0.42,0.65-0.97,1.22-1.65,1.7c-0.37,0.25-0.77,0.48-1.23,0.67c-0.76,0.31-1.62-0.26-1.64-1.08c-0.01-0.5,0.04-0.96,0.12-1.39 c0.17-0.82,0.48-1.55,0.9-2.19c0.43-0.65,0.97-1.22,1.66-1.7C62.6,24.44,63,24.21,63.46,24.02z" fill="#689991" style="stroke-width:1px;fill:rgb(104, 153, 145);;animation:none"></path></g></g>
<g class="ldl-layer"><g class="ldl-ani" style="transform-origin:50px 50px;transform:matrix(0.912433, 0, 0, 0.912433, 0, 0);animation-duration:1s;animation-timing-function:linear;animation-delay:-0.923077s;animation-iteration-count:infinite;animation-direction:normal;animation-fill-mode:forwards;animation-play-state:paused;animation-name:animate;animation-timeline:auto;animation-range-start:normal;animation-range-end:normal;transform-box:view-box;;animation:none"><path d="M67.23,44.81c0.76-0.31,1.63,0.26,1.65,1.08c0.01,0.49-0.04,0.95-0.12,1.38c-0.17,0.82-0.48,1.55-0.9,2.2 c-0.42,0.65-0.97,1.22-1.65,1.7c-0.37,0.25-0.77,0.48-1.23,0.67c-0.76,0.31-1.62-0.26-1.64-1.08c-0.01-0.5,0.04-0.96,0.12-1.39 c0.17-0.82,0.48-1.55,0.9-2.19c0.43-0.65,0.97-1.22,1.66-1.7C66.38,45.22,66.77,44.99,67.23,44.81z" fill="#689991" style="stroke-width:1px;fill:rgb(104, 153, 145);;animation:none"></path></g></g>
<g class="ldl-layer"><g class="ldl-ani" style="transform-origin:50px 50px;transform:matrix(0.91, 0, 0, 0.91, 0, 0);animation-duration:1s;animation-timing-function:linear;animation-delay:-0.961538s;animation-iteration-count:infinite;animation-direction:normal;animation-fill-mode:forwards;animation-play-state:paused;animation-name:animate;animation-timeline:auto;animation-range-start:normal;animation-range-end:normal;transform-box:view-box;;animation:none"><path d="M38.82,15.99c-0.52-0.64-0.22-1.63,0.56-1.89c0.47-0.15,0.92-0.23,1.36-0.28c0.83-0.07,1.62,0.01,2.36,0.23 c0.75,0.22,1.45,0.58,2.11,1.09c0.34,0.28,0.68,0.6,0.99,0.99c0.51,0.64,0.22,1.63-0.56,1.89c-0.47,0.16-0.93,0.24-1.37,0.28 c-0.83,0.07-1.62-0.01-2.36-0.23c-0.74-0.22-1.45-0.58-2.1-1.1C39.46,16.69,39.13,16.38,38.82,15.99z" fill="#689991" style="stroke-width:1px;fill:rgb(104, 153, 145);;animation:none"></path></g></g>
<g class="ldl-layer"><g class="ldl-ani" style="transform-origin:50px 50px;transform:matrix(0.91, 0, 0, 0.91, 0, 0);animation-duration:1s;animation-timing-function:linear;animation-delay:-1s;animation-iteration-count:infinite;animation-direction:normal;animation-fill-mode:forwards;animation-play-state:paused;animation-name:animate;animation-timeline:auto;animation-range-start:normal;animation-range-end:normal;transform-box:view-box;;animation:none"><path d="M68.42,34.11c-0.69-0.45-0.72-1.48-0.06-1.97c0.4-0.29,0.8-0.51,1.2-0.69c0.77-0.33,1.54-0.5,2.31-0.52 c0.78-0.03,1.56,0.09,2.34,0.37c0.42,0.16,0.83,0.35,1.25,0.62c0.69,0.45,0.72,1.48,0.06,1.97c-0.4,0.3-0.81,0.52-1.21,0.7 c-0.77,0.33-1.54,0.5-2.31,0.52c-0.78,0.02-1.56-0.1-2.34-0.38C69.25,34.57,68.84,34.38,68.42,34.11z" fill="#689991" style="stroke-width:1px;fill:rgb(104, 153, 145);;animation:none"></path></g></g>
<metadata xmlns:d="https://loading.io/stock/"></metadata></g></g>
<STYLE type="text/css">@keyframes animate { 0.00% {transform: translate(0.00px,0.00px) rotate(0.00deg) scale(0.91, 0.91) skew(0deg, 0.00deg) ;opacity: 1.00;}4.00% {transform: translate(0.00px,0.00px) rotate(0.00deg) scale(0.91, 0.91) ;}8.00% {animation-timing-function: cubic-bezier(0.69,0.60,0.35,0.27);transform: translate(0.00px,0.00px) rotate(0.00deg) scale(0.91, 0.91) ;}14.00% {transform: translate(0.00px,0.00px) rotate(0.00deg) scale(0.93, 0.93) ;}18.00% {transform: translate(0.00px,0.00px) rotate(0.00deg) scale(0.94, 0.94) ;}22.00% {animation-timing-function: cubic-bezier(0.67,0.66,0.34,0.33);transform: translate(0.00px,0.00px) rotate(0.00deg) scale(0.96, 0.96) ;}26.00% {transform: translate(0.00px,0.00px) rotate(0.00deg) scale(0.97, 0.97) ;}30.00% {transform: translate(0.00px,0.00px) rotate(0.00deg) scale(0.99, 0.99) ;}34.00% {animation-timing-function: cubic-bezier(0.65,0.71,0.32,0.38);transform: translate(0.00px,0.00px) rotate(0.00deg) scale(1.01, 1.01) ;}40.00% {animation-timing-function: cubic-bezier(0.64,0.74,0.31,0.41);transform: translate(0.00px,0.00px) rotate(0.00deg) scale(1.02, 1.02) ;}46.00% {animation-timing-function: cubic-bezier(0.60,0.91,0.23,0.63);transform: translate(0.00px,0.00px) rotate(0.00deg) scale(1.03, 1.03) ;}50.00% {transform: translate(0.00px,0.00px) rotate(0.00deg) scale(1.03, 1.03) ;}54.00% {transform: translate(0.00px,0.00px) rotate(0.00deg) scale(1.03, 1.03) ;}58.00% {animation-timing-function: cubic-bezier(0.69,0.60,0.35,0.27);transform: translate(0.00px,0.00px) rotate(0.00deg) scale(1.03, 1.03) ;}64.00% {transform: translate(0.00px,0.00px) rotate(0.00deg) scale(1.01, 1.01) ;}68.00% {transform: translate(0.00px,0.00px) rotate(0.00deg) scale(1.00, 1.00) ;}72.00% {animation-timing-function: cubic-bezier(0.67,0.66,0.34,0.33);transform: translate(0.00px,0.00px) rotate(0.00deg) scale(0.98, 0.98) ;}76.00% {animation-timing-function: cubic-bezier(0.66,0.68,0.33,0.35);transform: translate(0.00px,0.00px) rotate(0.00deg) scale(0.97, 0.97) ;}82.00% {animation-timing-function: cubic-bezier(0.65,0.71,0.32,0.38);transform: translate(0.00px,0.00px) rotate(0.00deg) scale(0.94, 0.94) ;}88.00% {animation-timing-function: cubic-bezier(0.65,0.73,0.31,0.40);transform: translate(0.00px,0.00px) rotate(0.00deg) scale(0.92, 0.92) ;}94.00% {animation-timing-function: cubic-bezier(0.63,0.80,0.28,0.48);transform: translate(0.00px,0.00px) rotate(0.00deg) scale(0.91, 0.91) ;}100.00% {animation-timing-function: cubic-bezier(0.63,0.80,0.28,0.48);transform: translate(0.00px,0.00px) rotate(0.00deg) scale(0.91, 0.91) ;} }</STYLE><!-- [ldio] generated by https://loading.io --></svg>