<svg xml:space="preserve" viewBox="0 0 100 100" y="0px" x="0px" xmlns:xlink="http://www.w3.org/1999/xlink" xmlns="http://www.w3.org/2000/svg" id="圖層_1" version="1.1" preserveAspectRatio="xMidYMid" width="200" height="200" style="margin-top:0px;margin-right:0px;margin-bottom:0px;margin-left:0px;display:block;shape-rendering:auto;background-position-x:0%;background-position-y:0%;background-size:auto;background-origin:padding-box;background-clip:border-box;background:scroll rgb(255, 255, 255) none  repeat;width:200px;height:200px;;animation:none"><g class="ldl-scale" style="transform-origin:50px 50px;transform:matrix(0.8, 0, 0, 0.8, 0, 0);;animation:none"><g class="ldl-ani"><g class="ldl-layer"><g class="ldl-ani" style="transform-origin:50px 50px;transform:matrix(1.03, 0, 0, 1.03, 0, 0);animation-duration:1s;animation-timing-function:linear;animation-delay:-0.53125s;animation-iteration-count:infinite;animation-direction:normal;animation-fill-mode:forwards;animation-play-state:paused;animation-name:animate;animation-timeline:auto;animation-range-start:normal;animation-range-end:normal;transform-box:view-box;;animation:none"><ellipse ry="26.46" rx="31.91" cy="48.49" cx="50.28" stroke-miterlimit="10" stroke-linejoin="round" stroke-linecap="round" stroke-width="4.1703" stroke="#333435" fill="#849B87" style="stroke-width:4.1703px;fill:rgb(132, 155, 135);stroke:rgb(51, 52, 53);;animation:none"></ellipse></g></g>
<g class="ldl-layer"><g class="ldl-ani"><g><g class="ldl-layer"><g class="ldl-ani" style="transform-origin:50px 50px;transform:matrix(1.03, 0, 0, 1.03, 0, 0);animation-duration:1s;animation-timing-function:linear;animation-delay:-0.5625s;animation-iteration-count:infinite;animation-direction:normal;animation-fill-mode:forwards;animation-play-state:paused;animation-name:animate;animation-timeline:auto;animation-range-start:normal;animation-range-end:normal;transform-box:view-box;;animation:none"><ellipse ry="16.93" rx="20.41" cy="54.63" cx="25.41" stroke-miterlimit="10" stroke-linejoin="round" stroke-linecap="round" stroke-width="3.5" stroke="#333435" fill="#92BFA8" style="stroke-width:3.5px;fill:rgb(146, 191, 168);stroke:rgb(51, 52, 53);;animation:none"></ellipse></g></g>
<g class="ldl-layer"><g class="ldl-ani" style="transform-origin:50px 50px;transform:matrix(1.02604, 0, 0, 1.02604, 0, 0);animation-duration:1s;animation-timing-function:linear;animation-delay:-0.59375s;animation-iteration-count:infinite;animation-direction:normal;animation-fill-mode:forwards;animation-play-state:paused;animation-name:animate;animation-timeline:auto;animation-range-start:normal;animation-range-end:normal;transform-box:view-box;;animation:none"><path d="M16.06,64.21c-0.89,0.13-1.65-0.69-1.46-1.57c0.12-0.53,0.29-0.99,0.49-1.43c0.39-0.82,0.9-1.51,1.52-2.09 c0.62-0.58,1.34-1.04,2.19-1.37c0.45-0.17,0.93-0.31,1.47-0.39c0.88-0.13,1.65,0.69,1.46,1.57c-0.12,0.53-0.29,1-0.49,1.44 c-0.39,0.82-0.9,1.51-1.52,2.09c-0.62,0.57-1.35,1.04-2.19,1.37C17.07,63.99,16.59,64.13,16.06,64.21z" fill="#689991" style="stroke-width:1px;fill:rgb(104, 153, 145);;animation:none"></path></g></g>
<g class="ldl-layer"><g class="ldl-ani" style="transform-origin:50px 50px;transform:matrix(1.01568, 0, 0, 1.01568, 0, 0);animation-duration:1s;animation-timing-function:linear;animation-delay:-0.625s;animation-iteration-count:infinite;animation-direction:normal;animation-fill-mode:forwards;animation-play-state:paused;animation-name:animate;animation-timeline:auto;animation-range-start:normal;animation-range-end:normal;transform-box:view-box;;animation:none"><path d="M21.24,47.71c-0.83-0.34-1.06-1.45-0.45-2.1c0.37-0.39,0.76-0.7,1.15-0.98c0.76-0.5,1.55-0.83,2.38-1.01 c0.83-0.18,1.69-0.2,2.58-0.05c0.48,0.09,0.96,0.22,1.46,0.43c0.82,0.35,1.06,1.44,0.45,2.09c-0.37,0.4-0.76,0.71-1.16,0.99 c-0.76,0.5-1.55,0.83-2.38,1.01c-0.83,0.17-1.69,0.2-2.58,0.05C22.22,48.05,21.74,47.92,21.24,47.71z" fill="#689991" style="stroke-width:1px;fill:rgb(104, 153, 145);;animation:none"></path></g></g>
<g class="ldl-layer"><g class="ldl-ani" style="transform-origin:50px 50px;transform:matrix(1.00594, 0, 0, 1.00594, 0, 0);animation-duration:1s;animation-timing-function:linear;animation-delay:-0.65625s;animation-iteration-count:infinite;animation-direction:normal;animation-fill-mode:forwards;animation-play-state:paused;animation-name:animate;animation-timeline:auto;animation-range-start:normal;animation-range-end:normal;transform-box:view-box;;animation:none"><path d="M32.27,55.81c0.15-0.88,1.18-1.35,1.95-0.9c0.46,0.27,0.85,0.58,1.21,0.91c0.66,0.63,1.15,1.33,1.51,2.1 c0.36,0.77,0.57,1.6,0.62,2.51c0.02,0.48,0,0.98-0.09,1.52c-0.16,0.88-1.17,1.35-1.94,0.9c-0.47-0.28-0.86-0.59-1.22-0.91 c-0.66-0.63-1.15-1.33-1.51-2.1c-0.35-0.77-0.57-1.6-0.62-2.51C32.16,56.83,32.18,56.34,32.27,55.81z" fill="#689991" style="stroke-width:1px;fill:rgb(104, 153, 145);;animation:none"></path></g></g></g></g></g>
<g class="ldl-layer"><g class="ldl-ani"><g><g class="ldl-layer"><g class="ldl-ani" style="transform-origin:50px 50px;transform:matrix(0.99625, 0, 0, 0.99625, 0, 0);animation-duration:1s;animation-timing-function:linear;animation-delay:-0.6875s;animation-iteration-count:infinite;animation-direction:normal;animation-fill-mode:forwards;animation-play-state:paused;animation-name:animate;animation-timeline:auto;animation-range-start:normal;animation-range-end:normal;transform-box:view-box;;animation:none"><ellipse ry="16.93" rx="20.41" cy="54.63" cx="74.59" stroke-miterlimit="10" stroke-linejoin="round" stroke-linecap="round" stroke-width="3.5" stroke="#333435" fill="#92BFA8" style="stroke-width:3.5px;fill:rgb(146, 191, 168);stroke:rgb(51, 52, 53);;animation:none"></ellipse></g></g>
<g class="ldl-layer"><g class="ldl-ani" style="transform-origin:50px 50px;transform:matrix(0.980625, 0, 0, 0.980625, 0, 0);animation-duration:1s;animation-timing-function:linear;animation-delay:-0.71875s;animation-iteration-count:infinite;animation-direction:normal;animation-fill-mode:forwards;animation-play-state:paused;animation-name:animate;animation-timeline:auto;animation-range-start:normal;animation-range-end:normal;transform-box:view-box;;animation:none"><path d="M74.56,64.1c0.2,0.87-0.56,1.71-1.44,1.59c-0.53-0.07-1.01-0.21-1.47-0.37c-0.85-0.32-1.58-0.78-2.21-1.34 c-0.63-0.57-1.15-1.25-1.55-2.07c-0.21-0.44-0.38-0.91-0.51-1.44c-0.2-0.87,0.56-1.7,1.44-1.58c0.54,0.07,1.02,0.21,1.48,0.37 c0.85,0.32,1.58,0.78,2.2,1.35c0.62,0.57,1.14,1.26,1.54,2.07C74.26,63.11,74.44,63.57,74.56,64.1z" fill="#689991" style="stroke-width:1px;fill:rgb(104, 153, 145);;animation:none"></path></g></g>
<g class="ldl-layer"><g class="ldl-ani" style="transform-origin:50px 50px;transform:matrix(0.97254, 0, 0, 0.97254, 0, 0);animation-duration:1s;animation-timing-function:linear;animation-delay:-0.75s;animation-iteration-count:infinite;animation-direction:normal;animation-fill-mode:forwards;animation-play-state:paused;animation-name:animate;animation-timeline:auto;animation-range-start:normal;animation-range-end:normal;transform-box:view-box;;animation:none"><path d="M79.19,56.08c-0.89,0.06-1.59-0.82-1.33-1.68c0.16-0.52,0.37-0.97,0.6-1.39c0.45-0.79,1.02-1.44,1.68-1.96 c0.66-0.53,1.42-0.93,2.29-1.2c0.47-0.13,0.96-0.23,1.5-0.27c0.89-0.06,1.59,0.82,1.33,1.68c-0.16,0.52-0.37,0.98-0.6,1.4 c-0.46,0.79-1.02,1.44-1.69,1.96c-0.66,0.52-1.42,0.93-2.29,1.19C80.21,55.94,79.73,56.04,79.19,56.08z" fill="#689991" style="stroke-width:1px;fill:rgb(104, 153, 145);;animation:none"></path></g></g></g></g></g>
<g class="ldl-layer"><g class="ldl-ani" style="transform-origin:50px 50px;transform:matrix(0.959023, 0, 0, 0.959023, 0, 0);animation-duration:1s;animation-timing-function:linear;animation-delay:-0.78125s;animation-iteration-count:infinite;animation-direction:normal;animation-fill-mode:forwards;animation-play-state:paused;animation-name:animate;animation-timeline:auto;animation-range-start:normal;animation-range-end:normal;transform-box:view-box;;animation:none"><path d="M55.86,77.44l-1.11-13.32l10.95-15.25l-2.63-2.17L51.27,58.9h-1.38L39.32,48.14l-4.44,2.06L47.2,65.09l-1.06,12.35 c-0.12,2.06-0.82,4.02-2,5.54l-1.99,2.56h17.71l-1.99-2.56C56.69,81.46,55.98,79.5,55.86,77.44z" stroke-miterlimit="10" stroke-linejoin="round" stroke-linecap="round" stroke-width="3.5" stroke="#333435" fill="#C69C6D" style="stroke-width:3.5px;fill:rgb(198, 156, 109);stroke:rgb(51, 52, 53);;animation:none"></path></g></g>
<g class="ldl-layer"><g class="ldl-ani"><g><g class="ldl-layer"><g class="ldl-ani" style="transform-origin:50px 50px;transform:matrix(0.943634, 0, 0, 0.943634, 0, 0);animation-duration:1s;animation-timing-function:linear;animation-delay:-0.8125s;animation-iteration-count:infinite;animation-direction:normal;animation-fill-mode:forwards;animation-play-state:paused;animation-name:animate;animation-timeline:auto;animation-range-start:normal;animation-range-end:normal;transform-box:view-box;;animation:none"><path d="M69.78,25.13c-2.27-7.1-8.84-10.67-19.5-10.67c-10.64,0-17.2,3.56-19.48,10.62c-11.88,0.65-18.03,6.28-18.03,16.86 c0,11.27,6.97,16.93,20.41,16.93c7.86,0,13.49-1.95,16.83-5.82c3.33,3.86,8.96,5.82,16.83,5.82c13.44,0,20.41-5.65,20.41-16.93 C87.23,31.54,81.28,25.93,69.78,25.13z" stroke-miterlimit="10" stroke-linejoin="round" stroke-linecap="round" stroke-width="3.5" stroke="#333435" fill="#92BFA8" style="stroke-width:3.5px;fill:rgb(146, 191, 168);stroke:rgb(51, 52, 53);;animation:none"></path></g></g>
<g class="ldl-layer"><g class="ldl-ani" style="transform-origin:50px 50px;transform:matrix(0.931286, 0, 0, 0.931286, 0, 0);animation-duration:1s;animation-timing-function:linear;animation-delay:-0.84375s;animation-iteration-count:infinite;animation-direction:normal;animation-fill-mode:forwards;animation-play-state:paused;animation-name:animate;animation-timeline:auto;animation-range-start:normal;animation-range-end:normal;transform-box:view-box;;animation:none"><path d="M74.34,41.98c1.2-5.78-1.78-9.42-8.67-10.85c-4.02-0.83-7.12-0.44-9.24,1.18" stroke-miterlimit="10" stroke-linejoin="round" stroke-linecap="round" stroke-width="3.5" stroke="#333435" fill="#92BFA8" style="stroke-width:3.5px;fill:rgb(146, 191, 168);stroke:rgb(51, 52, 53);;animation:none"></path></g></g>
<g class="ldl-layer"><g class="ldl-ani" style="transform-origin:50px 50px;transform:matrix(0.921517, 0, 0, 0.921517, 0, 0);animation-duration:1s;animation-timing-function:linear;animation-delay:-0.875s;animation-iteration-count:infinite;animation-direction:normal;animation-fill-mode:forwards;animation-play-state:paused;animation-name:animate;animation-timeline:auto;animation-range-start:normal;animation-range-end:normal;transform-box:view-box;;animation:none"><path d="M44.63,35.43c0.48,0.75,0.05,1.79-0.83,1.98c-0.53,0.11-1.02,0.14-1.5,0.14c-0.91-0.02-1.75-0.2-2.53-0.53 c-0.78-0.32-1.5-0.8-2.15-1.43c-0.34-0.34-0.67-0.72-0.96-1.18c-0.48-0.75-0.04-1.79,0.83-1.98c0.53-0.11,1.03-0.15,1.52-0.15 c0.91,0.02,1.75,0.2,2.53,0.53c0.78,0.33,1.5,0.8,2.15,1.44C44.02,34.6,44.34,34.98,44.63,35.43z" fill="#689991" style="stroke-width:1px;fill:rgb(104, 153, 145);;animation:none"></path></g></g>
<g class="ldl-layer"><g class="ldl-ani" style="transform-origin:50px 50px;transform:matrix(0.915017, 0, 0, 0.915017, 0, 0);animation-duration:1s;animation-timing-function:linear;animation-delay:-0.90625s;animation-iteration-count:infinite;animation-direction:normal;animation-fill-mode:forwards;animation-play-state:paused;animation-name:animate;animation-timeline:auto;animation-range-start:normal;animation-range-end:normal;transform-box:view-box;;animation:none"><path d="M65.42,44.31c0.56,0.7,0.23,1.78-0.62,2.05c-0.51,0.17-1,0.25-1.48,0.3c-0.91,0.08-1.76-0.02-2.57-0.26 c-0.81-0.24-1.58-0.63-2.29-1.2c-0.37-0.31-0.74-0.65-1.08-1.08c-0.56-0.7-0.23-1.77,0.62-2.05c0.52-0.17,1.01-0.26,1.49-0.31 c0.91-0.08,1.76,0.02,2.57,0.26c0.81,0.25,1.57,0.64,2.29,1.2C64.72,43.55,65.08,43.89,65.42,44.31z" fill="#689991" style="stroke-width:1px;fill:rgb(104, 153, 145);;animation:none"></path></g></g>
<g class="ldl-layer"><g class="ldl-ani" style="transform-origin:50px 50px;transform:matrix(0.910362, 0, 0, 0.910362, 0, 0);animation-duration:1s;animation-timing-function:linear;animation-delay:-0.9375s;animation-iteration-count:infinite;animation-direction:normal;animation-fill-mode:forwards;animation-play-state:paused;animation-name:animate;animation-timeline:auto;animation-range-start:normal;animation-range-end:normal;transform-box:view-box;;animation:none"><path d="M28.14,41.99c0.86,0.25,1.21,1.32,0.68,2.03c-0.32,0.43-0.68,0.78-1.04,1.1c-0.7,0.58-1.45,1-2.25,1.27 c-0.8,0.27-1.65,0.39-2.56,0.34c-0.48-0.04-0.98-0.11-1.5-0.26c-0.86-0.25-1.21-1.32-0.68-2.03c0.33-0.44,0.68-0.79,1.05-1.11 c0.7-0.58,1.45-1,2.25-1.26c0.8-0.26,1.66-0.38,2.56-0.33C27.13,41.76,27.62,41.83,28.14,41.99z" fill="#689991" style="stroke-width:1px;fill:rgb(104, 153, 145);;animation:none"></path></g></g>
<g class="ldl-layer"><g class="ldl-ani" style="transform-origin:50px 50px;transform:matrix(0.91, 0, 0, 0.91, 0, 0);animation-duration:1s;animation-timing-function:linear;animation-delay:-0.96875s;animation-iteration-count:infinite;animation-direction:normal;animation-fill-mode:forwards;animation-play-state:paused;animation-name:animate;animation-timeline:auto;animation-range-start:normal;animation-range-end:normal;transform-box:view-box;;animation:none"><path d="M54.96,20.06c0.78-0.43,1.79,0.07,1.92,0.96c0.08,0.53,0.08,1.03,0.04,1.51c-0.08,0.91-0.32,1.73-0.7,2.49 c-0.38,0.76-0.89,1.44-1.57,2.05c-0.37,0.32-0.77,0.62-1.25,0.88c-0.78,0.43-1.79-0.08-1.92-0.96c-0.08-0.54-0.08-1.04-0.05-1.52 c0.08-0.91,0.32-1.73,0.7-2.49c0.38-0.76,0.9-1.44,1.58-2.05C54.09,20.62,54.49,20.32,54.96,20.06z" fill="#689991" style="stroke-width:1px;fill:rgb(104, 153, 145);;animation:none"></path></g></g>
<g class="ldl-layer"><g class="ldl-ani" style="transform-origin:50px 50px;transform:matrix(0.91, 0, 0, 0.91, 0, 0);animation-duration:1s;animation-timing-function:linear;animation-delay:-1s;animation-iteration-count:infinite;animation-direction:normal;animation-fill-mode:forwards;animation-play-state:paused;animation-name:animate;animation-timeline:auto;animation-range-start:normal;animation-range-end:normal;transform-box:view-box;;animation:none"><path d="M43.67,51.92c0.2,0.87-0.56,1.71-1.44,1.59c-0.53-0.07-1.01-0.21-1.47-0.37c-0.85-0.32-1.58-0.78-2.21-1.34 c-0.63-0.57-1.15-1.25-1.55-2.07c-0.21-0.44-0.38-0.91-0.51-1.44c-0.2-0.87,0.56-1.7,1.44-1.58c0.54,0.07,1.02,0.21,1.48,0.37 c0.85,0.32,1.58,0.78,2.2,1.35c0.62,0.57,1.14,1.26,1.54,2.07C43.37,50.93,43.54,51.39,43.67,51.92z" fill="#689991" style="stroke-width:1px;fill:rgb(104, 153, 145);;animation:none"></path></g></g></g></g></g>
<metadata xmlns:d="https://loading.io/stock/"></metadata></g></g>
<STYLE type="text/css">@keyframes animate { 0.00% {transform: translate(0.00px,0.00px) rotate(0.00deg) scale(0.91, 0.91) skew(0deg, 0.00deg) ;opacity: 1.00;}4.00% {transform: translate(0.00px,0.00px) rotate(0.00deg) scale(0.91, 0.91) ;}8.00% {animation-timing-function: cubic-bezier(0.69,0.60,0.35,0.27);transform: translate(0.00px,0.00px) rotate(0.00deg) scale(0.91, 0.91) ;}14.00% {transform: translate(0.00px,0.00px) rotate(0.00deg) scale(0.93, 0.93) ;}18.00% {transform: translate(0.00px,0.00px) rotate(0.00deg) scale(0.94, 0.94) ;}22.00% {animation-timing-function: cubic-bezier(0.67,0.66,0.34,0.33);transform: translate(0.00px,0.00px) rotate(0.00deg) scale(0.96, 0.96) ;}26.00% {transform: translate(0.00px,0.00px) rotate(0.00deg) scale(0.97, 0.97) ;}30.00% {transform: translate(0.00px,0.00px) rotate(0.00deg) scale(0.99, 0.99) ;}34.00% {animation-timing-function: cubic-bezier(0.65,0.71,0.32,0.38);transform: translate(0.00px,0.00px) rotate(0.00deg) scale(1.01, 1.01) ;}40.00% {animation-timing-function: cubic-bezier(0.64,0.74,0.31,0.41);transform: translate(0.00px,0.00px) rotate(0.00deg) scale(1.02, 1.02) ;}46.00% {animation-timing-function: cubic-bezier(0.60,0.91,0.23,0.63);transform: translate(0.00px,0.00px) rotate(0.00deg) scale(1.03, 1.03) ;}50.00% {transform: translate(0.00px,0.00px) rotate(0.00deg) scale(1.03, 1.03) ;}54.00% {transform: translate(0.00px,0.00px) rotate(0.00deg) scale(1.03, 1.03) ;}58.00% {animation-timing-function: cubic-bezier(0.69,0.60,0.35,0.27);transform: translate(0.00px,0.00px) rotate(0.00deg) scale(1.03, 1.03) ;}64.00% {transform: translate(0.00px,0.00px) rotate(0.00deg) scale(1.01, 1.01) ;}68.00% {transform: translate(0.00px,0.00px) rotate(0.00deg) scale(1.00, 1.00) ;}72.00% {animation-timing-function: cubic-bezier(0.67,0.66,0.34,0.33);transform: translate(0.00px,0.00px) rotate(0.00deg) scale(0.98, 0.98) ;}76.00% {animation-timing-function: cubic-bezier(0.66,0.68,0.33,0.35);transform: translate(0.00px,0.00px) rotate(0.00deg) scale(0.97, 0.97) ;}82.00% {animation-timing-function: cubic-bezier(0.65,0.71,0.32,0.38);transform: translate(0.00px,0.00px) rotate(0.00deg) scale(0.94, 0.94) ;}88.00% {animation-timing-function: cubic-bezier(0.65,0.73,0.31,0.40);transform: translate(0.00px,0.00px) rotate(0.00deg) scale(0.92, 0.92) ;}94.00% {animation-timing-function: cubic-bezier(0.63,0.80,0.28,0.48);transform: translate(0.00px,0.00px) rotate(0.00deg) scale(0.91, 0.91) ;}100.00% {animation-timing-function: cubic-bezier(0.63,0.80,0.28,0.48);transform: translate(0.00px,0.00px) rotate(0.00deg) scale(0.91, 0.91) ;} }</STYLE><!-- [ldio] generated by https://loading.io --></svg>